<svg width="20" height="24" viewBox="0 0 20 24" fill="none" xmlns="http://www.w3.org/2000/svg">
<path d="M10.0101 0C11.1112 0 12.0121 0.9 12.0121 2V4H8.00806V2C8.00806 0.9 8.90896 0 10.0101 0Z" fill="#91CAFF"/>
<path d="M10.01 18C14.4327 18 18.018 14.4183 18.018 10C18.018 5.58172 14.4327 2 10.01 2C5.58726 2 2.00195 5.58172 2.00195 10C2.00195 14.4183 5.58726 18 10.01 18Z" fill="#007AFF"/>
<path d="M18.6086 19.9998H1.41141C0.630631 19.9998 0 19.3698 0 18.5898C0 18.2098 0.15015 17.8598 0.41041 17.5898L1.58158 16.4198C1.85185 16.1498 1.99199 15.7998 1.99199 15.4198V10.0098H18.008V15.4198C18.008 15.7998 18.1582 16.1498 18.4184 16.4198L19.5896 17.5898C19.8599 17.8598 20 18.2098 20 18.5898C20 19.3698 19.3694 19.9998 18.5886 19.9998H18.6086Z" fill="#91CAFF"/>
<path d="M10.01 24C11.6716 24 13.013 22.66 13.013 21H7.00696C7.00696 22.66 8.3483 24 10.01 24Z" fill="#007AFF"/>
</svg>
