<svg width="121" height="26" viewBox="0 0 121 26" fill="none" xmlns="http://www.w3.org/2000/svg">
<path d="M101.281 16.4144C101.281 11.1313 105.281 6.86719 110.979 6.86719C116.376 6.86719 120.3 10.8295 120.3 17.0181V18.2634H107.319C107.659 19.9615 109.244 21.5087 111.961 21.5087C113.583 21.5087 115.394 20.8672 116.413 19.9615L118.866 23.5842C117.055 25.2068 114.036 25.9993 111.244 25.9993C105.621 25.9993 101.281 22.3389 101.281 16.4144ZM110.979 11.3578C108.451 11.3578 107.47 13.1691 107.244 14.4898H114.753C114.602 13.2068 113.659 11.3578 110.979 11.3578Z" fill="#007AFF"/>
<path d="M86.0047 25.5468H80.1934V0.376953H86.0047V9.4713C87.4386 7.65997 89.4009 6.86752 91.4009 6.86752C95.9292 6.86752 99.4386 10.4524 99.4386 16.4147C99.4386 22.6034 95.8915 25.9996 91.4009 25.9996C89.3632 25.9996 87.5141 25.1694 86.0047 23.4336V25.5468ZM86.0047 13.66V19.2449C86.7217 20.226 88.2311 20.8675 89.4764 20.8675C91.7783 20.8675 93.5141 19.1694 93.5141 16.4147C93.5141 13.6977 91.7783 11.9996 89.4764 11.9996C88.2311 11.9996 86.7217 12.6788 86.0047 13.66Z" fill="#007AFF"/>
<path d="M69.8242 10.6038C69.8242 8.67928 71.4469 7.05664 73.3714 7.05664C75.2959 7.05664 76.9186 8.67928 76.9186 10.6038C76.9186 12.5283 75.2959 14.151 73.3714 14.151C71.4469 14.151 69.8242 12.5283 69.8242 10.6038ZM69.8242 22.4529C69.8242 20.5283 71.4469 18.9057 73.3714 18.9057C75.2959 18.9057 76.9186 20.5283 76.9186 22.4529C76.9186 24.3774 75.2959 26 73.3714 26C71.4469 26 69.8242 24.3774 69.8242 22.4529Z" fill="#007AFF"/>
<path d="M48.5469 16.4144C48.5469 11.1313 52.5469 6.86719 58.245 6.86719C63.6412 6.86719 67.5657 10.8295 67.5657 17.0181V18.2634H54.5846C54.9242 19.9615 56.5091 21.5087 59.2261 21.5087C60.8488 21.5087 62.6601 20.8672 63.679 19.9615L66.1318 23.5842C64.3205 25.2068 61.3016 25.9993 58.5091 25.9993C52.8865 25.9993 48.5469 22.3389 48.5469 16.4144ZM58.245 11.3578C55.7167 11.3578 54.7356 13.1691 54.5091 14.4898H62.0186C61.8676 13.2068 60.9242 11.3578 58.245 11.3578Z" fill="#007AFF"/>
<path d="M27.873 16.4144C27.873 11.1313 31.873 6.86719 37.5712 6.86719C42.9674 6.86719 46.8919 10.8295 46.8919 17.0181V18.2634H33.9108C34.2504 19.9615 35.8353 21.5087 38.5523 21.5087C40.1749 21.5087 41.9863 20.8672 43.0051 19.9615L45.458 23.5842C43.6466 25.2068 40.6278 25.9993 37.8353 25.9993C32.2127 25.9993 27.873 22.3389 27.873 16.4144ZM37.5712 11.3578C35.0429 11.3578 34.0617 13.1691 33.8353 14.4898H41.3447C41.1938 13.2068 40.2504 11.3578 37.5712 11.3578Z" fill="#007AFF"/>
<path d="M20.741 25.5464H14.9297V7.32002H20.741V9.62191C21.9486 8.15021 24.2504 6.86719 26.4391 6.86719V12.4898C26.0995 12.3766 25.6089 12.3012 25.0052 12.3012C23.4957 12.3012 21.4957 12.9427 20.741 13.9993V25.5464Z" fill="#007AFF"/>
<path d="M12.5283 12.3774H8.83019V25.5472H3.01887V12.3774H0V7.32076H3.01887V6.41509C3.01887 2.5283 5.77359 0 9.54717 0C11.1321 0 12.4906 0.339623 13.3962 0.830189L12.3396 4.79245C11.8868 4.5283 11.3585 4.4151 10.8302 4.4151C9.62264 4.4151 8.83019 5.16981 8.83019 6.56604V7.32076H12.5283V12.3774Z" fill="#007AFF"/>
</svg>
