<svg width="112" height="24" viewBox="0 0 112 24" fill="none" xmlns="http://www.w3.org/2000/svg">
<path d="M93.9828 15.1523C93.9828 10.2758 97.675 6.33972 102.935 6.33972C107.916 6.33972 111.538 9.99712 111.538 15.7096V16.8591H99.556C99.8695 18.4265 101.332 19.8547 103.84 19.8547C105.338 19.8547 107.01 19.2625 107.951 18.4265L110.215 21.7704C108.543 23.2682 105.756 23.9997 103.179 23.9997C97.9885 23.9997 93.9828 20.621 93.9828 15.1523ZM102.935 10.4848C100.601 10.4848 99.6953 12.1567 99.4863 13.3759H106.418C106.279 12.1916 105.408 10.4848 102.935 10.4848Z" fill="white"/>
<path d="M79.883 23.582H74.5188V0.348877H79.883V8.74347C81.2066 7.07152 83.0179 6.34004 84.864 6.34004C89.0439 6.34004 92.2833 9.64911 92.2833 15.1526C92.2833 20.8651 89.009 24 84.864 24C82.9831 24 81.2763 23.2337 79.883 21.6314V23.582ZM79.883 12.6099V17.765C80.5448 18.6707 81.9381 19.2628 83.0876 19.2628C85.2123 19.2628 86.8146 17.6954 86.8146 15.1526C86.8146 12.6447 85.2123 11.0772 83.0876 11.0772C81.9381 11.0772 80.5448 11.7042 79.883 12.6099Z" fill="white"/>
<path d="M64.9479 9.78791C64.9479 8.01146 66.4457 6.51367 68.2221 6.51367C69.9986 6.51367 71.4964 8.01146 71.4964 9.78791C71.4964 11.5644 69.9986 13.0622 68.2221 13.0622C66.4457 13.0622 64.9479 11.5644 64.9479 9.78791ZM64.9479 20.7253C64.9479 18.9488 66.4457 17.451 68.2221 17.451C69.9986 17.451 71.4964 18.9488 71.4964 20.7253C71.4964 22.5017 69.9986 23.9995 68.2221 23.9995C66.4457 23.9995 64.9479 22.5017 64.9479 20.7253Z" fill="white"/>
<path d="M45.3087 15.1523C45.3087 10.2758 49.0009 6.33972 54.2606 6.33972C59.2416 6.33972 62.8642 9.99712 62.8642 15.7096V16.8591H50.8819C51.1954 18.4265 52.6583 19.8547 55.1663 19.8547C56.6641 19.8547 58.336 19.2625 59.2765 18.4265L61.5406 21.7704C59.8686 23.2682 57.082 23.9997 54.5045 23.9997C49.3144 23.9997 45.3087 20.621 45.3087 15.1523ZM54.2606 10.4848C51.9269 10.4848 51.0212 12.1567 50.8122 13.3759H57.7439C57.6045 12.1916 56.7337 10.4848 54.2606 10.4848Z" fill="white"/>
<path d="M26.2269 15.1523C26.2269 10.2758 29.9192 6.33972 35.1788 6.33972C40.1599 6.33972 43.7824 9.99712 43.7824 15.7096V16.8591H31.8001C32.1136 18.4265 33.5766 19.8547 36.0845 19.8547C37.5823 19.8547 39.2542 19.2625 40.1947 18.4265L42.4588 21.7704C40.7868 23.2682 38.0003 23.9997 35.4227 23.9997C30.2326 23.9997 26.2269 20.621 26.2269 15.1523ZM35.1788 10.4848C32.8451 10.4848 31.9394 12.1567 31.7304 13.3759H38.6621C38.5227 12.1916 37.6519 10.4848 35.1788 10.4848Z" fill="white"/>
<path d="M19.6441 23.5817H14.2799V6.75771H19.6441V8.88248C20.7587 7.52402 22.8835 6.33972 24.9038 6.33972V11.5297C24.5903 11.4252 24.1375 11.3556 23.5801 11.3556C22.1868 11.3556 20.3407 11.9477 19.6441 12.923V23.5817Z" fill="white"/>
<path d="M12.0643 11.425H8.65077V23.5815H3.28659V11.425H0.5V6.75747H3.28659V5.9215C3.28659 2.33377 5.82935 0 9.31258 0C10.7755 0 12.0295 0.313491 12.8655 0.766312L11.8902 4.42371C11.4722 4.17988 10.9845 4.07538 10.4969 4.07538C9.38224 4.07538 8.65077 4.77203 8.65077 6.06083V6.75747H12.0643V11.425Z" fill="white"/>
</svg>
