<svg width="32" height="32" viewBox="0 0 32 32" fill="none" xmlns="http://www.w3.org/2000/svg">
<circle cx="16" cy="16" r="16" fill="#E7F2FB"/>
<path d="M16 7C17.1272 7 18.2082 7.44777 19.0052 8.2448C19.8022 9.04183 20.25 10.1228 20.25 11.25C20.25 12.3772 19.8022 13.4582 19.0052 14.2552C18.2082 15.0522 17.1272 15.5 16 15.5C14.8728 15.5 13.7918 15.0522 12.9948 14.2552C12.1978 13.4582 11.75 12.3772 11.75 11.25C11.75 10.1228 12.1978 9.04183 12.9948 8.2448C13.7918 7.44777 14.8728 7 16 7ZM16 17.625C20.6962 17.625 24.5 19.5269 24.5 21.875V24H7.5V21.875C7.5 19.5269 11.3038 17.625 16 17.625Z" fill="#007AFF"/>
</svg>
