<svg width="26" height="26" viewBox="0 0 26 26" fill="none" xmlns="http://www.w3.org/2000/svg">
<path d="M13 0.5C14.6908 0.5 16.3123 1.17165 17.5078 2.36719C18.7034 3.56274 19.375 5.18424 19.375 6.875C19.375 8.56575 18.7034 10.1873 17.5078 11.3828C16.3123 12.5784 14.6908 13.25 13 13.25C11.3092 13.25 9.68774 12.5784 8.49219 11.3828C7.29665 10.1873 6.625 8.56575 6.625 6.875C6.625 5.18424 7.29665 3.56274 8.49219 2.36719C9.68774 1.17165 11.3092 0.5 13 0.5ZM13 16.4375C20.0444 16.4375 25.75 19.2903 25.75 22.8125V26H0.25V22.8125C0.25 19.2903 5.95563 16.4375 13 16.4375Z" fill="#007AFF"/>
</svg>
