<svg width="20" height="20" viewBox="0 0 20 20" fill="none" xmlns="http://www.w3.org/2000/svg">
<path d="M9.11354 3C5.73362 3 3 5.73362 3 9.11354C3 12.4934 5.73362 15.2271 9.11354 15.2271C10.4847 15.2271 11.7511 14.7729 12.7729 14.0044L15.7686 17L17 15.7686L14.0044 12.7729C14.7642 11.7511 15.2271 10.4934 15.2271 9.11354C15.2271 5.73362 12.4934 3 9.11354 3ZM9.11354 13.4803C6.70306 13.4803 4.74672 11.524 4.74672 9.11354C4.74672 6.70306 6.70306 4.74672 9.11354 4.74672C11.524 4.74672 13.4803 6.70306 13.4803 9.11354C13.4803 11.524 11.524 13.4803 9.11354 13.4803Z" fill="#007AFF"/>
</svg>
