<svg width="24" height="24" viewBox="0 0 24 24" fill="none" xmlns="http://www.w3.org/2000/svg">
<path d="M5.33329 5.33268H7.83329L9.49996 3.66602H14.5L16.1666 5.33268H18.6666C19.1087 5.33268 19.5326 5.50828 19.8451 5.82084C20.1577 6.1334 20.3333 6.55732 20.3333 6.99935V16.9993C20.3333 17.4414 20.1577 17.8653 19.8451 18.1779C19.5326 18.4904 19.1087 18.666 18.6666 18.666H5.33329C4.89127 18.666 4.46734 18.4904 4.15478 18.1779C3.84222 17.8653 3.66663 17.4414 3.66663 16.9993V6.99935C3.66663 6.55732 3.84222 6.1334 4.15478 5.82084C4.46734 5.50828 4.89127 5.33268 5.33329 5.33268ZM12 7.83268C10.8949 7.83268 9.83508 8.27167 9.05368 9.05307C8.27228 9.83447 7.83329 10.8943 7.83329 11.9993C7.83329 13.1044 8.27228 14.1642 9.05368 14.9456C9.83508 15.727 10.8949 16.166 12 16.166C13.105 16.166 14.1648 15.727 14.9462 14.9456C15.7276 14.1642 16.1666 13.1044 16.1666 11.9993C16.1666 10.8943 15.7276 9.83447 14.9462 9.05307C14.1648 8.27167 13.105 7.83268 12 7.83268ZM12 9.49935C12.663 9.49935 13.2989 9.76274 13.7677 10.2316C14.2366 10.7004 14.5 11.3363 14.5 11.9993C14.5 12.6624 14.2366 13.2983 13.7677 13.7671C13.2989 14.236 12.663 14.4993 12 14.4993C11.3369 14.4993 10.701 14.236 10.2322 13.7671C9.76335 13.2983 9.49996 12.6624 9.49996 11.9993C9.49996 11.3363 9.76335 10.7004 10.2322 10.2316C10.701 9.76274 11.3369 9.49935 12 9.49935Z" fill="#007AFF"/>
</svg>
