<svg width="24" height="24" viewBox="0 0 24 24" fill="none" xmlns="http://www.w3.org/2000/svg">
<path d="M17.25 4.5H8.25C7.83579 4.5 7.5 4.83579 7.5 5.25V16.5C7.5 16.9142 7.83579 17.25 8.25 17.25H17.25C17.6642 17.25 18 16.9142 18 16.5V5.25C18 4.83579 17.6642 4.5 17.25 4.5Z" fill="#91C9FF"/>
<path d="M15.75 6.75H6.75C6.33579 6.75 6 7.08579 6 7.5V18.75C6 19.1642 6.33579 19.5 6.75 19.5H15.75C16.1642 19.5 16.5 19.1642 16.5 18.75V7.5C16.5 7.08579 16.1642 6.75 15.75 6.75Z" fill="#007AFF"/>
<path d="M15 9.75H7.5V10.875H15V9.75Z" fill="#91C9FF"/>
<path d="M15 12.0898H7.5V13.2148H15V12.0898Z" fill="#91C9FF"/>
<path d="M12 14.4375H7.5V15.5625H12V14.4375Z" fill="#91C9FF"/>
<path d="M12.9375 6.1875H9.5625C9.25184 6.1875 9 6.43934 9 6.75C9 7.06066 9.25184 7.3125 9.5625 7.3125H12.9375C13.2482 7.3125 13.5 7.06066 13.5 6.75C13.5 6.43934 13.2482 6.1875 12.9375 6.1875Z" fill="white"/>
</svg>
