<svg width="24" height="24" viewBox="0 0 24 24" fill="none" xmlns="http://www.w3.org/2000/svg">
<path d="M10.3455 16.52L8.91855 17.9052C8.54437 18.279 8.03688 18.489 7.50771 18.489C6.97854 18.489 6.47104 18.279 6.09686 17.9052C5.72268 17.5314 5.51247 17.0244 5.51247 16.4958C5.51247 15.9672 5.72268 15.4602 6.09686 15.0864L9.757 11.4218C10.1162 11.0618 10.6003 10.8535 11.109 10.84C11.6177 10.8265 12.1121 11.0089 12.49 11.3494L12.5867 11.4299C12.7396 11.5794 12.9457 11.6621 13.1596 11.6599C13.3736 11.6576 13.5778 11.5705 13.7275 11.4178C13.8772 11.2651 13.96 11.0592 13.9577 10.8455C13.9555 10.6318 13.8683 10.4277 13.7154 10.2782C13.6697 10.2196 13.6213 10.1632 13.5703 10.1091C12.8821 9.5109 11.992 9.19643 11.0804 9.22933C10.1688 9.26222 9.30378 9.64004 8.66057 10.2862L4.95206 13.9508C4.3219 14.636 3.9811 15.5379 4.00081 16.4682C4.02052 17.3985 4.39924 18.2852 5.05786 18.9432C5.71648 19.6012 6.60409 19.9795 7.53532 19.9992C8.46654 20.0189 9.36938 19.6784 10.0553 19.0489L11.45 17.6878C11.5877 17.5377 11.6634 17.3411 11.6619 17.1375C11.6603 16.9339 11.5817 16.7384 11.4417 16.5904C11.3017 16.4425 11.1109 16.3529 10.9075 16.3398C10.7041 16.3268 10.5033 16.3911 10.3455 16.52ZM18.9638 5.05121C18.2856 4.3779 17.3683 4 16.4122 4C15.456 4 14.5387 4.3779 13.8605 5.05121L12.4658 6.41232C12.3281 6.5624 12.2524 6.75902 12.2539 6.96261C12.2555 7.1662 12.3341 7.36166 12.4741 7.50965C12.6141 7.65764 12.805 7.74718 13.0083 7.76026C13.2117 7.77333 13.4125 7.70898 13.5703 7.58013L14.965 6.19486C15.3392 5.82105 15.8467 5.61105 16.3759 5.61105C16.905 5.61105 17.4125 5.82105 17.7867 6.19486C18.1609 6.56866 18.3711 7.07565 18.3711 7.60429C18.3711 8.13293 18.1609 8.63992 17.7867 9.01373L14.1266 12.6783C13.7673 13.0383 13.2833 13.2466 12.7746 13.2601C12.2659 13.2736 11.7714 13.0912 11.3936 12.7507L11.2968 12.6702C11.144 12.5207 10.9379 12.4379 10.7239 12.4402C10.51 12.4425 10.3057 12.5296 10.1561 12.6823C10.0064 12.835 9.92358 13.0409 9.92585 13.2546C9.92812 13.4683 10.0153 13.6724 10.1682 13.8219C10.227 13.8815 10.2889 13.9379 10.3536 13.991C11.0426 14.5874 11.9323 14.9007 12.8434 14.8678C13.7544 14.8349 14.6192 14.4583 15.2633 13.8139L18.9315 10.1493C19.6098 9.47608 19.9939 8.56209 19.9999 7.60691C20.006 6.65173 19.6335 5.73296 18.9638 5.05121Z" fill="#849CAA"/>
</svg>
