<svg width="16" height="16" viewBox="0 0 16 16" fill="none" xmlns="http://www.w3.org/2000/svg">
<path fill-rule="evenodd" clip-rule="evenodd" d="M8 16C12.4183 16 16 12.4183 16 8C16 3.58172 12.4183 0 8 0C3.58172 0 0 3.58172 0 8C0 12.4183 3.58172 16 8 16ZM10.1466 3.82228C9.57759 3.27851 8.85345 3 8 3C7.12069 3 6.39655 3.26525 5.84052 3.79576C5.28448 4.32626 5 5.00265 5 5.82493L6.6681 6.20955C6.6681 5.73209 6.79741 5.34748 7.03017 5.08223C7.26293 4.81698 7.58621 4.68435 8 4.68435C8.38793 4.68435 8.68534 4.79045 8.90517 5.00265C9.125 5.21485 9.24138 5.49337 9.24138 5.86472C9.24138 6.1565 9.15086 6.43501 8.99569 6.687C8.84052 6.93899 8.64655 7.16446 8.42672 7.35013C8.19397 7.54907 7.97414 7.74801 7.75431 7.96021C7.52155 8.17241 7.32759 8.43766 7.17241 8.75597C7.01724 9.07427 6.93966 9.4191 6.93966 9.79045V10.1883H8.69828V9.79045C8.69828 9.53846 8.77586 9.29973 8.93104 9.06101C9.08621 8.82228 9.28017 8.61008 9.51293 8.41114C9.73276 8.22546 9.95259 8.01326 10.1853 7.7878C10.4052 7.5756 10.5991 7.29708 10.7543 6.96552C10.9095 6.64721 11 6.27586 11 5.87798C11 5.0557 10.7155 4.36605 10.1466 3.82228ZM6.83621 13V10.9708H8.81466V13H6.83621Z" fill="#A9BCC8"/>
</svg>
